<?xml version="1.0" encoding="utf-8"?>
<!-- Generator: Adobe Illustrator 19.0.0, SVG Export Plug-In . SVG Version: 6.00 Build 0)  -->
<svg version="1.1" id="Doggy" xmlns="http://www.w3.org/2000/svg" xmlns:xlink="http://www.w3.org/1999/xlink" x="0px" y="0px"
	 viewBox="-341.3 286.3 225.6 41.1" style="enable-background:new -341.3 286.3 225.6 41.1;" xml:space="preserve">
<style type="text/css">
	.st0{fill:#74CFEB;}
	.st1{font-family:'Kalam-Bold';}
	.st2{font-size:23px;}
	.st3{fill:#EC368D;}
	.st4{fill:#440381;}
	.st5{fill:url(#SVGID_1_);}
	.st6{fill:url(#SVGID_2_);}
	.st7{fill:url(#SVGID_3_);}
	.st8{fill:url(#SVGID_4_);}
	.st9{enable-background:new    ;}
	.st10{fill:url(#SVGID_5_);}
	.st11{fill:url(#SVGID_6_);}
	.st12{fill:url(#SVGID_7_);}
	.st13{fill:url(#SVGID_8_);}
	.st14{fill:url(#MainPaw1_5_);}
	.st15{fill:url(#Paw4_1_);}
	.st16{fill:url(#Paw3_1_);}
	.st17{fill:url(#Paw2_1_);}
	.st18{fill:url(#Paw1_1_);}
	.st19{fill:url(#MainPaw1_11_);}
	.st20{fill:url(#Paw4_11_);}
	.st21{fill:url(#Paw3_11_);}
	.st22{fill:url(#Paw2_11_);}
	.st23{fill:url(#Paw1_11_);}
</style>
<g id="walk-a-dog">
	<g id="XMLID_1_">
		<text transform="matrix(1 0 0 1 -334.1541 312.9398)" class="st0 st1 st2">walk</text>
		<g>
			<path class="st3" d="M-323.3,320.6c-1.1,0-2.2-0.2-3.3-0.7c-1,0.4-2.1,0.7-3.4,0.7c-1.9,0-3.8-0.6-5.6-1.9
				c-1.7-1.2-3-2.7-3.7-4.5c-0.6-1.5-1-3.5-1.5-6.7c-0.5-3.6-0.5-5-0.5-5.8c0-5,3.8-8.9,8.6-8.9c0.8,0,2.1,0.1,3.4,0.6
				c1.4-0.6,2.6-0.6,3.2-0.6c0.9,0,2,0.1,3.2,0.5c0.9-0.3,1.9-0.5,3-0.5c1.8,0,3.6,0.5,5.3,1.5c3,1.7,4.8,4.7,4.8,7.9
				c0,1.2-0.2,2.4-1.1,5.4c-0.8,2.8-2.1,5.4-3.8,7.6C-315.6,316.8-318.5,320.6-323.3,320.6z"/>
			<path class="st3" d="M-308.9,320.7c-0.6,0-1.5-0.1-2.4-0.4c-0.8,0.2-1.7,0.4-2.7,0.4c-1.9,0-4.8-0.6-7.7-3.3
				c-3-2.9-3.6-5.9-3.6-8c0-2,0.6-4.1,1.8-6.6c1-2.1,2.5-4.1,4.2-5.9c3.4-3.4,6.8-4.1,9.1-4.1c2.7,0,5.2,1.1,7.6,3.2
				c3.3,2.9,3.9,6,3.9,8c0,0.8-0.1,1.6-0.3,2.5c0,0.1,0,0.2,0,0.4c0,1.3-0.3,2.4-0.6,3.5c-0.1,0.3-0.1,0.5-0.2,0.6
				c-0.1,0.4-0.2,1-0.2,1c0,0.2-0.1,0.6-0.2,1l-0.1,0.5c0,0.2-0.1,0.4-0.2,0.8c-0.3,0.9-0.7,1.8-1.2,2.5c-0.1,0.2-0.3,0.4-0.5,0.7
				C-303.8,319.5-306.3,320.7-308.9,320.7z"/>
			<path class="st3" d="M-303.5,320.7c-1.8,0-4.6-0.6-7.2-3.4c-1.9-2.1-2.8-4.3-2.8-6.7c0-1.1,0.1-1.3,0.9-4.4
				c0.4-1.3,0.7-3.1,1.1-5.3c0.3-2,0.5-3.9,0.5-5.7c0-4.9,3.8-8.7,8.7-8.7c2.8,0,5.3,1.3,7.5,3.8c2.3,2.7,2.8,5.4,2.8,7.2
				c0,1-0.1,2.3-0.3,4.2c-0.2,1.8-0.4,3.3-0.7,4.5c0,0,0,0.1,0,0.1C-294.8,313.9-296.4,320.7-303.5,320.7z"/>
			<path class="st3" d="M-290.1,320.7c-1.4,0-2.6-0.3-3.8-0.7c-1,0.4-2.1,0.7-3.4,0.7c-1.8,0-4.6-0.6-7.2-3.4
				c-1.9-2.1-2.9-4.4-2.9-6.8c0-1.3,0.2-2,1.1-5c0.5-1.5,0.9-3.4,1.4-5.6c0.4-1.9,0.6-3.5,0.6-4.7c0-4.9,3.8-8.7,8.6-8.7
				c2.7,0,5.2,1.2,7.4,3.6c1.2,1.3,1.9,2.6,2.3,3.7c1.1,0.5,2.2,1.3,3.2,2.5c2.3,2.5,2.7,5,2.7,6.7c0,2.2-0.9,3.9-1.8,5.1
				c0.7,1.5,0.9,2.8,0.9,3.7C-280.9,316.8-284.9,320.7-290.1,320.7z"/>
		</g>
		<g>
			<path class="st4" d="M-323.3,318.6c-1.4,0-2.5-0.4-3.3-0.9c-0.9,0.5-2,0.9-3.3,0.9c-1.5,0-3-0.5-4.4-1.5c-1.4-1-2.4-2.2-3-3.6
				c-0.5-1.3-1-3.2-1.3-6.2c-0.4-2.7-0.5-4.4-0.5-5.6c0-4,2.9-6.9,6.6-6.9c1,0,2.2,0.2,3.4,0.8c1.3-0.7,2.5-0.8,3.2-0.8
				c0.9,0,2,0.1,3.3,0.7c0.8-0.4,1.8-0.7,2.9-0.7c1.5,0,2.9,0.4,4.4,1.2c3.4,2,3.8,4.9,3.8,6.1c0,0.9-0.1,1.8-1,4.9
				c-0.7,2.6-1.9,4.9-3.4,7C-317.2,315.5-319.5,318.6-323.3,318.6z"/>
			<path class="st4" d="M-308.9,318.7c-0.7,0-1.5-0.1-2.4-0.5c-0.9,0.3-1.8,0.5-2.7,0.5c-2.2,0-4.4-0.9-6.3-2.7
				c-2.5-2.4-3-4.9-3-6.5c0-1.7,0.5-3.5,1.6-5.8c0.9-1.9,2.2-3.7,3.8-5.3c2.9-2.9,5.7-3.5,7.6-3.5c2.2,0,4.3,0.9,6.2,2.6
				c2.2,1.9,3.3,4.1,3.3,6.5c0,0.8-0.1,1.5-0.3,2.3c0,0.2,0,0.4,0,0.5c0,1-0.2,1.9-0.5,2.9c-0.2,0.6-0.2,0.8-0.2,0.8
				c-0.1,0.4-0.2,1.1-0.2,1.1c0,0.2-0.1,0.5-0.2,0.9l-0.1,0.5c0,0.2-0.1,0.4-0.2,0.7c-0.2,0.7-0.5,1.4-0.9,2
				c-0.1,0.2-0.2,0.4-0.4,0.6C-305,317.8-306.9,318.7-308.9,318.7z"/>
			<path class="st4" d="M-303.5,318.7c-2.1,0-4-0.9-5.7-2.8c-1.5-1.7-2.3-3.5-2.3-5.4c0-0.8,0-0.8,0.8-3.9c0.4-1.4,0.8-3.2,1.1-5.5
				c0.4-2.1,0.5-4.1,0.5-6c0-3.7,2.9-6.7,6.7-6.7c2.2,0,4.2,1,6,3.1c1.9,2.2,2.3,4.4,2.3,5.9c0,0.9-0.1,2.1-0.3,4
				c-0.2,1.8-0.4,3.2-0.7,4.3C-296.8,313.5-298,318.7-303.5,318.7z"/>
			<path class="st4" d="M-290.1,318.7c-1.4,0-2.7-0.4-3.8-0.9c-1,0.6-2.1,0.9-3.3,0.9c-2.1,0-4-0.9-5.7-2.8
				c-0.6-0.6-2.4-2.6-2.4-5.4c0-1,0.2-1.5,1-4.4c0.5-1.6,0.9-3.5,1.4-5.8c0.4-2,0.6-3.8,0.6-5.2c0-3.8,2.9-6.7,6.6-6.7
				c3.2,0,5.2,2.2,5.9,3c1.2,1.4,1.9,2.7,2.2,3.9c1.1,0.4,2.2,1.1,3.4,2.4c1.5,1.6,2.2,3.4,2.2,5.3c0,2.3-1.2,3.9-2.3,4.9
				c1.1,1.4,1.4,2.9,1.4,4C-282.9,315.7-286,318.7-290.1,318.7z"/>
		</g>
		<g>
			<linearGradient id="SVGID_1_" gradientUnits="userSpaceOnUse" x1="-310.6025" y1="312.6631" x2="-310.6025" y2="294.356">
				<stop  offset="0" style="stop-color:#51E5FF"/>
				<stop  offset="1" style="stop-color:#5139FF"/>
			</linearGradient>
			<path class="st5" d="M-319.8,300.8c0.4,0,0.9,0.1,1.4,0.4c0.5,0.3,0.8,0.6,0.8,0.9s-0.3,1.4-0.8,3.3c-0.5,1.9-1.3,3.5-2.4,5
				c-1.1,1.5-1.9,2.2-2.5,2.2c-0.2,0-0.5-0.2-1-0.5c-0.4-0.3-0.7-0.7-0.9-1c-0.3-0.6-0.5-2.5-0.5-5.5c-0.7,2.1-1.4,3.9-2.3,5.1
				c-0.8,1.3-1.5,1.9-2,1.9c-0.2,0-0.6-0.2-1-0.5c-0.4-0.3-0.7-0.6-0.8-0.9c-0.3-0.8-0.7-2.4-1-4.7c-0.3-2.3-0.5-3.9-0.5-4.8
				c0-0.6,0.2-0.9,0.6-0.9c0.6,0,1.2,0.4,1.8,1.1s0.9,1.3,0.9,1.7c0,2.2,0,4,0.1,5.3c0.6-0.9,1.2-2.1,1.7-3.5
				c0.5-1.4,0.9-2.5,1.2-3.3c0.3-0.8,0.6-1.2,1-1.2c0.7,0,1.3,0.3,2,1c0.7,0.7,1,1.3,1,2c0,0.3-0.1,0.9-0.2,1.9
				c-0.1,1-0.1,1.7-0.1,2.2c0,0.5,0,0.9,0.1,1.2c0.5-0.5,0.9-1.2,1.3-2.2c0.4-1,0.6-1.9,0.8-2.8
				C-320.6,301.9-320.2,300.8-319.8,300.8z"/>
			<linearGradient id="SVGID_2_" gradientUnits="userSpaceOnUse" x1="-310.6025" y1="312.6631" x2="-310.6025" y2="294.356">
				<stop  offset="0" style="stop-color:#51E5FF"/>
				<stop  offset="1" style="stop-color:#5139FF"/>
			</linearGradient>
			<path class="st6" d="M-307.5,306.1c0.3,0.2,0.4,0.5,0.4,0.7s-0.1,0.6-0.3,1.2c-0.2,0.6-0.3,1.1-0.4,1.5c-0.1,0.3-0.1,0.6-0.1,0.8
				c0,0.2-0.1,0.4-0.1,0.5s0,0.3-0.1,0.4c0,0.2-0.1,0.3-0.1,0.4c0,0.1-0.1,0.2-0.1,0.3c0,0.1-0.1,0.2-0.1,0.3c0,0.1-0.1,0.1-0.2,0.2
				c-0.1,0.1-0.2,0.2-0.5,0.2s-0.5-0.2-0.8-0.6c-0.3-0.4-0.5-1-0.7-1.6c-1.4,1.5-2.7,2.2-3.6,2.2c-0.7,0-1.4-0.4-2.1-1.1
				s-1.1-1.5-1.1-2.2c0-0.7,0.3-1.8,1-3.1c0.7-1.3,1.6-2.6,2.7-3.7c1.1-1.2,2.3-1.7,3.4-1.7c0.6,0,1.4,0.4,2.2,1.1
				c0.8,0.8,1.3,1.4,1.3,2.1C-306.8,304.6-307,305.3-307.5,306.1z M-314.2,309.8c0.6,0,1.4-0.4,2.4-1.3c1-0.8,1.7-1.9,1.9-3.2
				c0-0.2,0.1-0.3,0.4-0.3c0-0.9-0.2-1.3-0.4-1.3c-0.6,0-1.3,0.4-2.1,1.2c-0.8,0.8-1.4,1.6-1.9,2.6c-0.5,0.9-0.7,1.6-0.7,2
				c0,0.1,0,0.2,0.1,0.2S-314.3,309.8-314.2,309.8z"/>
			<linearGradient id="SVGID_3_" gradientUnits="userSpaceOnUse" x1="-310.6025" y1="312.6631" x2="-310.6025" y2="294.356">
				<stop  offset="0" style="stop-color:#51E5FF"/>
				<stop  offset="1" style="stop-color:#5139FF"/>
			</linearGradient>
			<path class="st7" d="M-300.9,295.4c0.6,0.7,0.9,1.3,0.9,1.9s-0.1,1.7-0.3,3.3c-0.2,1.6-0.4,2.8-0.6,3.8c-1.3,5.6-2.2,8.3-2.7,8.3
				c-0.3,0-0.8-0.3-1.3-0.8c-0.5-0.5-0.7-1-0.7-1.3c0,0,0.2-0.8,0.6-2.4c0.4-1.6,0.8-3.6,1.3-6s0.6-4.8,0.6-7c0-0.4,0.2-0.7,0.7-0.7
				C-301.9,294.4-301.4,294.7-300.9,295.4z"/>
			<linearGradient id="SVGID_4_" gradientUnits="userSpaceOnUse" x1="-310.6025" y1="312.6631" x2="-310.6025" y2="294.356">
				<stop  offset="0" style="stop-color:#51E5FF"/>
				<stop  offset="1" style="stop-color:#5139FF"/>
			</linearGradient>
			<path class="st8" d="M-297.3,312.7c-0.4,0-0.8-0.3-1.3-0.9c-0.5-0.6-0.8-1-0.8-1.4c0-0.1,0.3-1,0.8-2.7c0.5-1.7,1-3.8,1.5-6.3
				c0.5-2.4,0.8-4.6,0.8-6.4c0-0.5,0.2-0.7,0.6-0.7c0.4,0,0.9,0.3,1.5,1c0.6,0.7,0.9,1.3,0.9,1.9c0,0.8-0.3,2.4-0.9,4.8
				c-0.6,2.3-1.2,4.2-1.8,5.5c0.2-0.3,0.5-0.6,0.8-1c0.3-0.4,0.6-0.8,0.8-1.1s0.5-0.6,0.8-1c0.3-0.4,0.6-0.7,0.8-1s0.5-0.5,0.7-0.9
				c0.3-0.3,0.5-0.6,0.7-0.8c0.2-0.2,0.4-0.4,0.6-0.5c0.4-0.3,0.7-0.5,0.9-0.5c0.4,0,0.8,0.3,1.3,0.8s0.7,1,0.7,1.3
				c0,0.2-0.3,0.5-1,1.1c-0.7,0.6-1.3,1.2-2,1.8c-0.7,0.7-1,1.3-1,1.8c0,0.5,0.2,1,0.5,1.5s0.7,0.9,1,1.1s0.7,0.5,1,0.8
				c0.3,0.3,0.5,0.5,0.5,0.7c0,0.6-0.4,0.9-1.2,0.9c-1,0-2.2-0.8-3.8-2.4l-0.6-0.6C-295.9,311.7-296.8,312.7-297.3,312.7z"/>
		</g>
	</g>
	<g id="XMLID_3_" class="st9">
		<text transform="matrix(1 0 0 1 -156.569 313.4153)" class="st0 st1 st2">dog</text>
		<g>
			<path class="st3" d="M-148.3,321.1c-0.7,0-1.5-0.1-2.4-0.3c-0.8,0.2-1.6,0.3-2.5,0.3c-3,0-5.8-1.4-8-3.8
				c-2.4-2.8-2.9-5.4-2.9-7.2c0-1.2,0.1-2.4,0.4-3.7c0.3-1.2,0.7-2.4,1.2-3.6c0.5-1.2,1.1-2.3,1.7-3.4c1-1.6,2.2-2.9,3.6-3.9
				c0.7-0.5,1.5-1,2.4-1.3c0.6-4.2,4.2-7.3,8.6-7.3c2.7,0,5.2,1.2,7.4,3.7c2.4,2.7,2.9,5.4,2.9,7.2c0,1.1-0.1,2-1,5.6
				c-0.5,2.1-0.8,3.3-0.9,3.8C-139.5,314.3-141.1,321.1-148.3,321.1z"/>
			<path class="st3" d="M-140.6,321.1c-3.3,0-6.2-1.4-8.4-4.1c-1.8-2.2-2.7-4.9-2.7-7.8c0-3.6,1.1-6.9,3.2-10c3.4-5,7.4-6,10.1-6
				c3.3,0,6.4,1.3,8.7,3.7c2.3,2.3,3.5,5.3,3.5,8.5c0,2.3-0.5,4.6-1.6,6.9c-1.1,2.3-2.6,4.3-4.6,5.9
				C-134.8,320.1-137.7,321.1-140.6,321.1z"/>
			<path class="st3" d="M-130.2,327.4c-2.9,0-5.6-1-7.9-2.9c-3.4-2.8-4.1-5.9-4.1-7.9c0-1.7,0.4-3.3,1.2-4.8
				c-0.1-0.7-0.2-1.3-0.2-1.8c0-1.6,0.3-3.2,1-5.1c0.5-1.4,1.1-2.8,1.9-4.1c1-1.8,2.3-3.4,3.9-4.7c2.9-2.4,5.7-2.9,7.6-2.9
				c2.2,0,4.3,0.7,6.1,1.9c1.7,1.2,3,2.8,3.7,4.8c0.6,1.5,0.9,3.1,1,4.8c0.2,0.8,0.3,1.6,0.3,2.5c0,1.6-0.4,3.1-1.2,4.7
				c-0.1,0.3-0.3,0.9-0.5,1.8c-0.4,1.7-0.7,3.1-1.1,4.2c-0.4,1.3-0.9,2.4-1.5,3.4c-0.9,1.7-2.2,3.1-3.8,4.1
				C-125.7,326.7-127.9,327.4-130.2,327.4z"/>
		</g>
		<g>
			<path class="st4" d="M-148.3,319.1c-0.7,0-1.5-0.1-2.4-0.4c-0.8,0.3-1.6,0.4-2.5,0.4c-2.4,0-4.7-1.1-6.5-3.1
				c-1.6-1.8-2.4-3.8-2.4-5.9c0-1,0.1-2.1,0.4-3.3c0.2-1.1,0.6-2.2,1.1-3.3c0.5-1.1,1-2.1,1.6-3.1c0.8-1.3,1.9-2.5,3.1-3.4
				c1-0.7,2-1.2,3.1-1.5v-0.1c0-3.8,2.9-6.7,6.7-6.7c3.2,0,5.3,2.3,5.9,3c2,2.2,2.4,4.4,2.4,5.9c0,0.8-0.1,1.5-1,5.1
				c-0.5,2.1-0.8,3.4-0.9,3.8C-141.4,313.6-142.7,319.1-148.3,319.1z"/>
			<path class="st4" d="M-140.6,319.1c-2.7,0-5.1-1.2-6.8-3.3c-1.5-1.8-2.3-4.1-2.3-6.5c0-3.2,1-6.1,2.8-8.9c3-4.3,6.2-5.2,8.5-5.2
				c2.8,0,5.3,1.1,7.2,3c1.9,1.9,2.9,4.4,2.9,7.1c0,2-0.5,4.1-1.4,6c-0.9,2-2.3,3.8-4,5.2C-135.7,318.3-138.1,319.1-140.6,319.1z"/>
			<path class="st4" d="M-130.2,325.4c-2.4,0-4.7-0.8-6.6-2.4c-2.3-1.9-3.4-4-3.4-6.4c0-1.6,0.4-3.1,1.3-4.5
				c-0.2-0.8-0.3-1.5-0.3-2.1c0-1.3,0.3-2.8,0.9-4.4c0.5-1.3,1-2.6,1.8-3.8c0.9-1.6,2.1-3,3.5-4.1c2.4-2,4.8-2.4,6.3-2.4
				c1.8,0,3.5,0.5,4.9,1.5c1.4,1,2.4,2.3,3,3.9c0.5,1.4,0.8,2.8,0.9,4.4c0.2,0.7,0.3,1.4,0.3,2.1c0,1.3-0.3,2.6-1,3.9
				c-0.2,0.4-0.4,1.1-0.6,2.1c-0.3,1.6-0.7,2.9-1.1,4c-0.4,1.2-0.9,2.2-1.4,3.1c-0.8,1.4-1.9,2.6-3.2,3.5
				C-126.5,324.8-128.3,325.4-130.2,325.4z"/>
		</g>
		<g>
			<linearGradient id="SVGID_5_" gradientUnits="userSpaceOnUse" x1="-139.8945" y1="319.3721" x2="-139.8945" y2="294.8311">
				<stop  offset="0" style="stop-color:#51E5FF"/>
				<stop  offset="1" style="stop-color:#5139FF"/>
			</linearGradient>
			<path class="st10" d="M-146.2,294.8c0.4,0,0.9,0.3,1.4,1c0.6,0.7,0.9,1.3,0.9,1.9c0,0.3-0.3,1.5-0.8,3.6c-0.5,2.1-0.9,3.4-1,3.9
				c-1.2,5.3-2.1,7.9-2.7,7.9c-0.3,0-0.7-0.2-1.1-0.6c-0.4-0.4-0.6-0.8-0.6-1.1c0-0.1,0-0.1,0-0.2c-1.5,1.3-2.6,1.9-3.3,1.9
				s-1.3-0.4-1.9-1.1s-0.9-1.4-0.9-1.9c0-0.6,0.1-1.2,0.2-1.9c0.2-0.7,0.4-1.5,0.7-2.3c0.3-0.8,0.7-1.5,1.2-2.2
				c0.4-0.7,1-1.3,1.6-1.7c0.6-0.5,1.3-0.7,1.9-0.7c1,0,1.8,0.5,2.4,1.5c0.8-3.6,1.2-6,1.2-7.2
				C-146.8,295.1-146.6,294.8-146.2,294.8z M-153,310.2c0.4,0,1-0.3,1.9-1s1.6-1.5,2-2.5c0-0.1,0-0.4,0-0.8s-0.1-0.8-0.4-1.2
				s-0.5-0.6-0.8-0.6c-0.5,0-0.9,0.2-1.3,0.7c-0.4,0.5-0.8,1.1-1,1.7c-0.5,1.4-0.8,2.5-0.8,3.2c0,0.1,0,0.2,0.1,0.2
				C-153.2,310.2-153.1,310.2-153,310.2z"/>
			<linearGradient id="SVGID_6_" gradientUnits="userSpaceOnUse" x1="-139.8945" y1="319.3721" x2="-139.8945" y2="294.8311">
				<stop  offset="0" style="stop-color:#51E5FF"/>
				<stop  offset="1" style="stop-color:#5139FF"/>
			</linearGradient>
			<path class="st11" d="M-141.9,303.8c1.2-1.7,2.4-2.6,3.5-2.6c1.2,0,2.1,0.4,2.9,1.2c0.8,0.8,1.2,1.8,1.2,3c0,1.2-0.3,2.3-0.8,3.5
				c-0.6,1.2-1.3,2.2-2.3,3c-1,0.8-2.1,1.2-3.2,1.2c-0.8,0-1.6-0.4-2.2-1.1c-0.6-0.8-0.9-1.7-0.9-2.7
				C-143.7,307.4-143.1,305.5-141.9,303.8z M-138.2,308.6c0.6-1.1,0.9-2.2,0.9-3.2s-0.1-1.7-0.4-2c-0.7,0.4-1.3,1.2-2,2.4
				c-0.7,1.2-1,2.3-1,3.2c0,0.9,0.1,1.5,0.3,1.8C-139.5,310.4-138.8,309.7-138.2,308.6z"/>
			<linearGradient id="SVGID_7_" gradientUnits="userSpaceOnUse" x1="-139.8945" y1="319.3721" x2="-139.8945" y2="294.8311">
				<stop  offset="0" style="stop-color:#51E5FF"/>
				<stop  offset="1" style="stop-color:#5139FF"/>
			</linearGradient>
			<path class="st12" d="M-124,306.2c0.2,0.3,0.3,0.6,0.3,0.9c0,0.4-0.2,0.8-0.5,1.4c-0.4,0.9-0.7,2.1-1,3.4
				c-0.3,1.4-0.6,2.5-0.9,3.3c-0.3,0.8-0.6,1.5-0.9,2.1c-0.3,0.6-0.8,1.1-1.3,1.4c-0.6,0.4-1.2,0.6-2,0.6c-1,0-1.9-0.3-2.8-1
				c-0.8-0.7-1.2-1.3-1.2-1.7c0-0.5,0.1-0.9,0.4-1.3s0.5-0.6,0.7-0.6c0.2,0,0.4,0.1,0.6,0.4s0.4,0.5,0.6,0.8
				c0.2,0.3,0.4,0.5,0.7,0.8s0.6,0.4,1,0.4c0.4,0,0.7-0.2,1-0.7c0.3-0.5,0.5-1,0.7-1.5c0.4-1.3,0.6-2.2,0.7-2.7c-1,0.6-1.9,1-2.5,1
				c-0.7,0-1.3-0.4-1.9-1.1s-0.9-1.4-0.9-2c0-0.6,0.2-1.4,0.5-2.4c0.3-1,0.8-1.9,1.3-2.9c0.5-1,1.2-1.8,2.1-2.5c0.8-0.7,1.7-1,2.5-1
				c0.6,0,1,0.1,1.4,0.4c0.4,0.3,0.7,0.7,0.9,1.1c0.3,0.8,0.5,1.8,0.5,2.8C-124,305.8-124,306-124,306.2z M-130.4,309.9
				c0,0.2,0.1,0.3,0.3,0.3c0.4,0,1.2-0.4,2.2-1.2c1-0.8,1.7-1.6,2-2.4v-0.4c0-1-0.1-1.6-0.3-1.8c-0.1-0.1-0.2-0.2-0.4-0.2
				c-0.7,0-1.5,0.8-2.4,2.3C-130,308.1-130.4,309.2-130.4,309.9z"/>
		</g>
	</g>
	<g id="XMLID_107_">
		<text transform="matrix(1 0 0 1 -225.3716 313.1484)" class="st0 st1 st2">a</text>
		<g>
			<path class="st3" d="M-216.5,320.9c-0.6,0-1.5-0.1-2.4-0.4c-0.8,0.2-1.7,0.4-2.7,0.4c-1.9,0-4.8-0.6-7.7-3.3
				c-3-2.9-3.6-5.9-3.6-8c0-2,0.6-4.1,1.8-6.6c1-2.1,2.5-4.1,4.2-5.9c3.4-3.4,6.8-4.1,9.1-4.1c2.7,0,5.2,1.1,7.6,3.2
				c3.3,2.9,3.9,6,3.9,8c0,0.8-0.1,1.6-0.3,2.5c0,0.1,0,0.2,0,0.4c0,1.3-0.3,2.4-0.6,3.5c-0.1,0.3-0.1,0.5-0.2,0.6
				c-0.1,0.4-0.2,1-0.2,1c0,0.2-0.1,0.6-0.2,1l-0.1,0.5c0,0.2-0.1,0.4-0.2,0.8c-0.3,0.9-0.7,1.8-1.2,2.5c-0.1,0.2-0.3,0.4-0.5,0.7
				C-211.3,319.7-213.8,320.9-216.5,320.9z"/>
		</g>
		<g>
			<path class="st4" d="M-216.5,318.9c-0.7,0-1.5-0.1-2.4-0.5c-0.9,0.3-1.8,0.5-2.7,0.5c-2.2,0-4.4-0.9-6.3-2.7
				c-2.5-2.4-3-4.9-3-6.5c0-1.7,0.5-3.5,1.6-5.8c0.9-1.9,2.2-3.7,3.8-5.3c2.9-2.9,5.7-3.5,7.6-3.5c2.2,0,4.3,0.9,6.2,2.6
				c2.2,1.9,3.3,4.1,3.3,6.5c0,0.8-0.1,1.5-0.3,2.3c0,0.2,0,0.4,0,0.5c0,1-0.2,1.9-0.5,2.9c-0.2,0.6-0.2,0.8-0.2,0.8
				c-0.1,0.4-0.2,1.1-0.2,1.1c0,0.2-0.1,0.5-0.2,0.9l-0.1,0.5c0,0.2-0.1,0.4-0.2,0.7c-0.2,0.7-0.5,1.4-0.9,2
				c-0.1,0.2-0.2,0.4-0.4,0.6C-212.5,318-214.4,318.9-216.5,318.9z"/>
		</g>
		<g>
			<linearGradient id="SVGID_8_" gradientUnits="userSpaceOnUse" x1="-219.6211" y1="312.8721" x2="-219.6211" y2="301.0049">
				<stop  offset="0" style="stop-color:#51E5FF"/>
				<stop  offset="1" style="stop-color:#5139FF"/>
			</linearGradient>
			<path class="st13" d="M-215,306.3c0.3,0.2,0.4,0.5,0.4,0.7s-0.1,0.6-0.3,1.2c-0.2,0.6-0.3,1.1-0.4,1.5c-0.1,0.3-0.1,0.6-0.1,0.8
				c0,0.2-0.1,0.4-0.1,0.5s0,0.3-0.1,0.4c0,0.2-0.1,0.3-0.1,0.4c0,0.1-0.1,0.2-0.1,0.3c0,0.1-0.1,0.2-0.1,0.3c0,0.1-0.1,0.1-0.2,0.2
				c-0.1,0.1-0.2,0.2-0.5,0.2s-0.5-0.2-0.8-0.6c-0.3-0.4-0.5-1-0.7-1.6c-1.4,1.5-2.7,2.2-3.6,2.2c-0.7,0-1.4-0.4-2.1-1.1
				s-1.1-1.5-1.1-2.2c0-0.7,0.3-1.8,1-3.1c0.7-1.3,1.6-2.6,2.7-3.7c1.1-1.2,2.3-1.7,3.4-1.7c0.6,0,1.4,0.4,2.2,1.1
				c0.8,0.8,1.3,1.4,1.3,2.1C-214.3,304.8-214.6,305.5-215,306.3z M-221.7,310c0.6,0,1.4-0.4,2.4-1.3c1-0.8,1.7-1.9,1.9-3.2
				c0-0.2,0.1-0.3,0.4-0.3c0-0.9-0.2-1.3-0.4-1.3c-0.6,0-1.3,0.4-2.1,1.2c-0.8,0.8-1.4,1.6-1.9,2.6c-0.5,0.9-0.7,1.6-0.7,2
				c0,0.1,0,0.2,0.1,0.2S-221.9,310-221.7,310z"/>
		</g>
	</g>
</g>
<g id="left-paw">
	<g>
		<g>
			<g id="MainPaw1_16_">
				<path class="st3" d="M-259.1,319c-3.1,0-7.1-1.8-8.5-6.8c-0.8-2.9-0.5-5.9,0.8-8.8l0.1-0.3c1.6-3.2,4.3-5.5,7.4-6.3
					c0.9-0.3,1.9-0.4,2.9-0.4c2.5,0,4.9,0.8,7.1,2.3c2.4,1.7,4.1,4.1,5,6.9l0.1,0.2c1.1,4-0.4,6.7-1.4,8c-1.2,1.6-3.5,3.4-7.4,3.4
					c-0.2,0-0.4,0-0.7,0C-254.7,317.9-256.5,319-259.1,319z"/>
			</g>
			<g id="Paw4_16_">
				<path class="st3" d="M-261,315.2c-3.3,0-6.5-1.9-8.4-4.9c-1.1-1.8-1.7-3.9-1.6-5.9c0.1-3.1,1.7-5.8,4.3-7.4
					c1.4-0.9,3-1.3,4.7-1.3c3.3,0,6.5,1.9,8.4,4.9c2.9,4.7,1.7,10.6-2.7,13.3C-257.7,314.8-259.3,315.2-261,315.2z"/>
			</g>
			<g id="Paw3_16_">
				<path class="st3" d="M-258.5,312.6c-3.3,0-6.5-1.9-8.4-4.9c-2.9-4.7-1.7-10.6,2.7-13.3c1.4-0.9,3.1-1.3,4.7-1.3
					c3.4,0,6.5,1.8,8.4,4.9c2.9,4.7,1.7,10.6-2.7,13.3C-255.2,312.1-256.8,312.6-258.5,312.6z"/>
			</g>
			<g id="Paw2_16_">
				<path class="st3" d="M-255.5,311.9c-4.8,0-8.8-3.8-9.4-8.9c-0.6-5.5,3-10.3,8.2-10.8l0.4,0l0.5,0c4.8,0,8.8,3.8,9.4,8.9
					c0.6,5.5-3,10.3-8.2,10.8l-0.4,0L-255.5,311.9z"/>
			</g>
			<g id="Paw1_16_">
				<path class="st3" d="M-252.3,313.4c-0.5,0-0.9,0-1.4-0.1c-5.2-0.8-8.5-5.7-7.7-11.2c0.8-4.9,4.7-8.5,9.3-8.5
					c0.5,0,0.9,0,1.4,0.1c5.2,0.8,8.5,5.7,7.7,11.2C-243.8,309.9-247.7,313.4-252.3,313.4z"/>
			</g>
		</g>
	</g>
	<g>
		<g>
			<g id="MainPaw1_17_">
				<path class="st4" d="M-259.1,317c-2.4,0-5.5-1.4-6.6-5.4c-0.7-2.4-0.4-5,0.7-7.5l0.1-0.2c1.4-2.7,3.5-4.6,6.2-5.3
					c0.8-0.2,1.6-0.3,2.3-0.3c2.1,0,4.1,0.7,6,2c2,1.4,3.5,3.4,4.2,5.8l0,0.1c0.9,3.1-0.3,5.3-1.1,6.3c-0.9,1.2-2.7,2.7-5.8,2.7
					c-0.2,0-0.5,0-0.8,0c-0.1,0-0.3,0-0.5,0c-0.1,0.1-0.3,0.2-0.4,0.2C-255.5,316-257,317-259.1,317z"/>
			</g>
			<g id="Paw4_17_">
				<path class="st4" d="M-261,313.2c-2.6,0-5.2-1.5-6.7-3.9c-0.9-1.5-1.4-3.1-1.3-4.8c0.1-2.4,1.3-4.6,3.3-5.8c1.1-0.7,2.4-1,3.7-1
					c2.6,0,5.2,1.5,6.7,3.9c2.3,3.8,1.4,8.4-2,10.6C-258.4,312.9-259.7,313.2-261,313.2z"/>
			</g>
			<g id="Paw3_17_">
				<path class="st4" d="M-258.5,310.6c-2.6,0-5.2-1.5-6.7-3.9c-2.3-3.8-1.4-8.4,2-10.6c1.1-0.7,2.4-1,3.7-1c2.6,0,5.2,1.5,6.7,3.9
					c2.3,3.8,1.4,8.4-2,10.6C-255.9,310.2-257.2,310.6-258.5,310.6z"/>
			</g>
			<g id="Paw2_17_">
				<path class="st4" d="M-255.5,309.9c-3.8,0-6.9-3.1-7.4-7.1c-0.5-4.4,2.4-8.2,6.4-8.6l0.3,0l0.4,0c3.8,0,6.9,3.1,7.4,7.1
					c0.5,4.4-2.4,8.2-6.4,8.6l-0.3,0L-255.5,309.9z"/>
			</g>
			<g id="Paw1_17_">
				<path class="st4" d="M-252.3,311.4c-0.4,0-0.7,0-1.1-0.1c-4-0.6-6.7-4.5-6-8.9c0.6-3.9,3.7-6.8,7.4-6.8c0.4,0,0.7,0,1.1,0.1
					c4,0.6,6.7,4.5,6,8.9C-245.6,308.6-248.7,311.4-252.3,311.4z"/>
			</g>
		</g>
	</g>
	<g>
		<linearGradient id="MainPaw1_5_" gradientUnits="userSpaceOnUse" x1="-255.9172" y1="311.0231" x2="-255.9172" y2="304.389">
			<stop  offset="0" style="stop-color:#FFD6C0"/>
			<stop  offset="1" style="stop-color:#FFA5A5"/>
		</linearGradient>
		<path id="MainPaw1_1_" class="st14" d="M-251.9,307.9c0.6,2.2-1.7,0.9-3.9,1.5s-3.5,2.9-4.1,0.7c-0.3-1.1-0.1-2.3,0.4-3.4
			c0.5-1,1.3-1.9,2.4-2.2c1.1-0.3,2.3,0.1,3.3,0.8S-252.2,306.9-251.9,307.9z"/>
		<linearGradient id="Paw4_1_" gradientUnits="userSpaceOnUse" x1="-261.4764" y1="307.235" x2="-261.4764" y2="303.7259">
			<stop  offset="0" style="stop-color:#FFD6C0"/>
			<stop  offset="1" style="stop-color:#FFA5A5"/>
		</linearGradient>
		<path id="Paw4_2_" class="st15" d="M-260.5,307.1c-0.6,0.4-1.6,0-2.1-0.9c-0.6-0.9-0.5-1.9,0.1-2.3c0.6-0.4,1.6,0,2.1,0.9
			C-259.8,305.7-259.9,306.7-260.5,307.1z"/>
		<linearGradient id="Paw3_1_" gradientUnits="userSpaceOnUse" x1="-258.9869" y1="304.5568" x2="-258.9869" y2="301.0477">
			<stop  offset="0" style="stop-color:#FFD6C0"/>
			<stop  offset="1" style="stop-color:#FFA5A5"/>
		</linearGradient>
		<path id="Paw3_2_" class="st16" d="M-258,304.4c-0.6,0.4-1.6,0-2.1-0.9c-0.6-0.9-0.5-1.9,0.1-2.3c0.6-0.4,1.6,0,2.1,0.9
			S-257.4,304-258,304.4z"/>
		<linearGradient id="Paw2_1_" gradientUnits="userSpaceOnUse" x1="-255.5798" y1="303.8745" x2="-255.5798" y2="300.0851">
			<stop  offset="0" style="stop-color:#FFD6C0"/>
			<stop  offset="1" style="stop-color:#FFA5A5"/>
		</linearGradient>
		<path id="Paw2_2_" class="st17" d="M-255.4,303.9c-0.7,0.1-1.4-0.7-1.5-1.8c-0.1-1,0.4-1.9,1.1-2c0.7-0.1,1.4,0.7,1.5,1.8
			C-254.2,302.9-254.7,303.8-255.4,303.9z"/>
		<linearGradient id="Paw1_1_" gradientUnits="userSpaceOnUse" x1="-252.1976" y1="305.4484" x2="-252.1976" y2="301.6718">
			<stop  offset="0" style="stop-color:#FFD6C0"/>
			<stop  offset="1" style="stop-color:#FFA5A5"/>
		</linearGradient>
		<path id="Paw1_2_" class="st18" d="M-252.5,305.4c-0.7-0.1-1.2-1-1-2.1c0.2-1,0.9-1.8,1.6-1.7c0.7,0.1,1.2,1,1,2.1
			C-251.1,304.8-251.8,305.5-252.5,305.4z"/>
	</g>
</g>
<g id="right-paw">
	<g>
		<g>
			<g id="MainPaw1_19_">
				<path class="st3" d="M-182,320.9c-2.1,0-3.7-0.7-4.7-1.2c-0.5,0.1-1.2,0.2-2,0.2h0c-2.7,0-5.1-1.1-6.7-3c-1-1.2-2.5-3.7-1.9-7.5
					c0.5-2.9,2-5.6,4.4-7.7l0.2-0.2c2.3-1.9,4.9-2.8,7.7-2.8c0.6,0,1.2,0,1.7,0.1c3.4,0.5,6.4,2.7,8.3,5.9c1.5,2.5,2.1,5.4,1.7,8.3
					l0,0.2C-174.2,318.5-178.5,320.9-182,320.9z"/>
			</g>
			<g id="Paw4_19_">
				<path class="st3" d="M-188.9,315.7c-4.8,0-8.7-3.7-9.4-8.7c-0.3-2.1,0.1-4.2,1-6c1.4-2.7,4-4.6,6.9-5c0.4-0.1,0.8-0.1,1.2-0.1
					c4.8,0,8.7,3.7,9.4,8.7c0.7,5.5-2.8,10.3-7.9,11C-188.1,315.6-188.5,315.7-188.9,315.7z"/>
			</g>
			<g id="Paw3_19_">
				<path class="st3" d="M-185.5,314.3c-4.8,0-8.7-3.7-9.3-8.7c-0.7-5.5,2.8-10.3,7.9-11c0.4-0.1,0.8-0.1,1.2-0.1
					c4.8,0,8.7,3.7,9.4,8.7c0.7,5.5-2.8,10.3-7.9,11C-184.7,314.2-185.1,314.3-185.5,314.3z"/>
			</g>
			<g id="Paw2_19_">
				<path class="st3" d="M-182.5,314.9c-1,0-1.9-0.2-2.8-0.5c-4.9-1.6-7.4-7.1-5.7-12.3c1.4-4.1,5.1-6.9,9.1-6.9
					c1,0,1.9,0.2,2.8,0.5c2.3,0.8,4.1,2.4,5.2,4.6c1.2,2.3,1.3,5.2,0.5,7.8C-174.8,312.1-178.4,314.9-182.5,314.9z"/>
			</g>
			<g id="Paw1_19_">
				<path class="st3" d="M-180.3,317.6c-1.7,0-3.4-0.5-4.9-1.4c-4.4-2.9-5.4-8.7-2.4-13.4c1.9-2.9,5-4.7,8.3-4.7
					c1.7,0,3.4,0.5,4.9,1.4c2.5,1.6,4,4.4,4.1,7.5c0,2.1-0.5,4.1-1.7,5.9C-173.9,315.9-177,317.6-180.3,317.6z"/>
			</g>
		</g>
	</g>
	<g>
		<g>
			<g id="MainPaw1_18_">
				<path class="st4" d="M-182,318.9c-1.7,0-3.1-0.7-4-1.1c-0.1-0.1-0.3-0.1-0.4-0.2c-0.1,0-0.3,0-0.4,0.1c-0.5,0.1-1.1,0.2-1.9,0.2
					c-2.8,0-4.5-1.5-5.2-2.3c-0.9-1.1-1.9-3-1.5-5.9c0.4-2.5,1.7-4.7,3.7-6.5l0.2-0.1c1.9-1.6,4.1-2.4,6.4-2.4c0.5,0,1,0,1.4,0.1
					c2.8,0.5,5.3,2.2,6.9,5c1.3,2.1,1.8,4.6,1.4,7l0,0.1C-176,317.1-179.2,318.9-182,318.9z"/>
			</g>
			<g id="Paw4_18_">
				<path class="st4" d="M-188.9,313.7c-3.7,0-6.8-2.9-7.4-6.9c-0.2-1.7,0.1-3.4,0.8-4.9c1.1-2.1,3.1-3.6,5.4-3.9
					c0.3,0,0.6-0.1,0.9-0.1c3.7,0,6.8,2.9,7.4,6.9c0.6,4.4-2.1,8.2-6.2,8.8C-188.3,313.7-188.6,313.7-188.9,313.7z"/>
			</g>
			<g id="Paw3_18_">
				<path class="st4" d="M-185.5,312.3c-3.7,0-6.8-2.9-7.4-6.9c-0.6-4.4,2.2-8.2,6.2-8.8c0.3,0,0.6-0.1,0.9-0.1
					c3.7,0,6.8,2.9,7.4,6.9c0.6,4.4-2.2,8.2-6.2,8.8C-184.9,312.2-185.2,312.3-185.5,312.3z"/>
			</g>
			<g id="Paw2_18_">
				<path class="st4" d="M-182.5,312.9c-0.7,0-1.5-0.1-2.2-0.4c-3.9-1.3-5.8-5.6-4.4-9.8c1.1-3.3,4-5.5,7.2-5.5
					c0.7,0,1.5,0.1,2.2,0.4c1.8,0.6,3.2,1.8,4.1,3.6c0.9,1.9,1.1,4.1,0.4,6.3C-176.4,310.6-179.3,312.9-182.5,312.9z"/>
			</g>
			<g id="Paw1_18_">
				<path class="st4" d="M-180.3,315.6c-1.4,0-2.7-0.4-3.8-1.1c-3.4-2.2-4.2-6.9-1.8-10.6c1.5-2.4,4-3.8,6.6-3.8
					c1.4,0,2.7,0.4,3.8,1.1c1.9,1.3,3.1,3.5,3.2,5.9c0,1.7-0.4,3.3-1.4,4.7C-175.2,314.2-177.7,315.6-180.3,315.6z"/>
			</g>
		</g>
	</g>
	<g>
		<linearGradient id="MainPaw1_11_" gradientUnits="userSpaceOnUse" x1="-185.3739" y1="312.9398" x2="-185.3739" y2="306.6436">
			<stop  offset="0" style="stop-color:#FFD6C0"/>
			<stop  offset="1" style="stop-color:#FFA5A5"/>
		</linearGradient>
		<path id="MainPaw1_4_" class="st19" d="M-181.3,311.9c-0.4,2.3-1.9,0.1-4.2-0.2c-2.3-0.4-4.4,1.2-4-1.1c0.2-1.1,0.9-2.1,1.8-2.9
			c0.9-0.7,2-1.2,3.1-1c1.1,0.2,2.1,1,2.7,2.1C-181.3,309.8-181.1,310.9-181.3,311.9z"/>
		<linearGradient id="Paw4_11_" gradientUnits="userSpaceOnUse" x1="-189.0162" y1="307.6703" x2="-189.0162" y2="303.8871">
			<stop  offset="0" style="stop-color:#FFD6C0"/>
			<stop  offset="1" style="stop-color:#FFA5A5"/>
		</linearGradient>
		<path id="Paw4_6_" class="st20" d="M-188.8,307.7c-0.7,0.1-1.4-0.7-1.5-1.7c-0.1-1,0.3-2,1-2.1c0.7-0.1,1.4,0.7,1.5,1.7
			C-187.6,306.7-188.1,307.6-188.8,307.7z"/>
		<linearGradient id="Paw3_11_" gradientUnits="userSpaceOnUse" x1="-185.6445" y1="306.2555" x2="-185.6445" y2="302.4723">
			<stop  offset="0" style="stop-color:#FFD6C0"/>
			<stop  offset="1" style="stop-color:#FFA5A5"/>
		</linearGradient>
		<path id="Paw3_6_" class="st21" d="M-185.4,306.2c-0.7,0.1-1.4-0.7-1.5-1.7c-0.1-1,0.3-2,1-2.1c0.7-0.1,1.4,0.7,1.5,1.7
			C-184.2,305.2-184.7,306.2-185.4,306.2z"/>
		<linearGradient id="Paw2_11_" gradientUnits="userSpaceOnUse" x1="-182.2011" y1="306.8672" x2="-182.2011" y2="303.1688">
			<stop  offset="0" style="stop-color:#FFD6C0"/>
			<stop  offset="1" style="stop-color:#FFA5A5"/>
		</linearGradient>
		<path id="Paw2_6_" class="st22" d="M-182.8,306.8c-0.7-0.2-1-1.2-0.6-2.2c0.3-1,1.2-1.6,1.8-1.4s1,1.2,0.6,2.2
			C-181.3,306.4-182.1,307-182.8,306.8z"/>
		<linearGradient id="Paw1_11_" gradientUnits="userSpaceOnUse" x1="-179.7703" y1="309.5946" x2="-179.7703" y2="306.1081">
			<stop  offset="0" style="stop-color:#FFD6C0"/>
			<stop  offset="1" style="stop-color:#FFA5A5"/>
		</linearGradient>
		<path id="Paw1_6_" class="st23" d="M-180.8,309.4c-0.6-0.4-0.6-1.4-0.1-2.3c0.6-0.9,1.5-1.3,2.1-0.9c0.6,0.4,0.6,1.4,0.1,2.3
			C-179.3,309.4-180.2,309.8-180.8,309.4z"/>
	</g>
</g>
</svg>
