<?xml version="1.0" encoding="utf-8"?>
<!-- Generator: Adobe Illustrator 19.0.0, SVG Export Plug-In . SVG Version: 6.00 Build 0)  -->
<svg version="1.1" id="Layer_1" xmlns="http://www.w3.org/2000/svg" xmlns:xlink="http://www.w3.org/1999/xlink" x="0px" y="0px"
	 viewBox="0 0 444.5 78.7" style="enable-background:new 0 0 444.5 78.7;" xml:space="preserve">
<style type="text/css">
	.st0{font-family:'Kalam-Bold';}
	.st1{font-size:72px;}
	.st2{fill:url(#XMLID_10_);}
	.st3{fill:url(#XMLID_11_);}
	.st4{fill:url(#XMLID_12_);}
	.st5{fill:url(#MainPaw1_3_);}
	.st6{fill:url(#Paw4_3_);}
	.st7{fill:url(#Paw3_3_);}
	.st8{fill:url(#Paw2_3_);}
	.st9{fill:url(#Paw1_3_);}
	.st10{fill:url(#XMLID_13_);}
	.st11{fill:url(#XMLID_14_);}
	.st12{fill:url(#XMLID_15_);}
	.st13{fill:url(#XMLID_16_);}
	.st14{fill:url(#XMLID_17_);}
	.st15{fill:url(#MainPaw1_4_);}
	.st16{fill:url(#Paw4_4_);}
	.st17{fill:url(#Paw3_4_);}
	.st18{fill:url(#Paw2_4_);}
	.st19{fill:url(#Paw1_4_);}
	.st20{fill:none;}
</style>
<g id="XMLID_1_">
	<text id="XMLID_70_" transform="matrix(1 0 0 1 341.7789 59.5563)" class="st0 st1">dog</text>
	<text id="XMLID_69_" transform="matrix(1 0 0 1 341.7789 59.5563)" class="st0 st1">dog</text>
	<g id="XMLID_59_">
		<linearGradient id="XMLID_10_" gradientUnits="userSpaceOnUse" x1="393.9785" y1="78.2046" x2="393.9785" y2="1.3804">
			<stop  offset="0" style="stop-color:#74CFEB"/>
			<stop  offset="0.1362" style="stop-color:#93BCDB"/>
			<stop  offset="0.4521" style="stop-color:#C091B9"/>
			<stop  offset="0.7112" style="stop-color:#D86BA1"/>
			<stop  offset="0.9005" style="stop-color:#E54992"/>
			<stop  offset="1" style="stop-color:#EB388D"/>
		</linearGradient>
		<path id="XMLID_66_" class="st2" d="M374.3,1.4c1.2,0,2.7,1,4.5,3.1s2.8,4,2.8,5.9c0,0.9-0.8,4.7-2.5,11.4
			c-1.7,6.7-2.7,10.7-3,12.1c-3.8,16.6-6.6,24.8-8.4,24.8c-1,0-2.1-0.6-3.4-1.8c-1.2-1.2-1.9-2.4-1.9-3.5c0-0.2,0-0.4,0.1-0.6
			c-4.8,3.9-8.2,5.9-10.3,5.9s-4.1-1.1-6-3.3c-1.9-2.2-2.9-4.3-2.9-6.1c0-1.8,0.3-3.9,0.8-6.1s1.3-4.6,2.3-7.1
			c1.1-2.5,2.3-4.8,3.6-7c1.4-2.2,3-4,5-5.4c1.9-1.4,3.9-2.1,6-2.1c3.1,0,5.6,1.6,7.6,4.7c2.6-11.4,3.8-18.9,3.7-22.7
			C372.2,2.1,372.9,1.4,374.3,1.4z M353.1,49.5c1.2,0,3.2-1,6.1-3.1c2.9-2.1,5-4.7,6.4-7.8c0-0.4-0.1-1.2-0.1-2.5
			c0-1.3-0.4-2.5-1.3-3.7c-0.9-1.2-1.7-1.7-2.4-1.7c-1.4,0-2.8,0.8-4.1,2.3c-1.3,1.5-2.4,3.4-3.1,5.5c-1.6,4.5-2.4,7.8-2.4,10.2
			c0,0.4,0.1,0.6,0.2,0.8C352.4,49.5,352.7,49.5,353.1,49.5z"/>
		<linearGradient id="XMLID_11_" gradientUnits="userSpaceOnUse" x1="393.9785" y1="78.2046" x2="393.9785" y2="1.3804">
			<stop  offset="0" style="stop-color:#74CFEB"/>
			<stop  offset="0.1362" style="stop-color:#93BCDB"/>
			<stop  offset="0.4521" style="stop-color:#C091B9"/>
			<stop  offset="0.7112" style="stop-color:#D86BA1"/>
			<stop  offset="0.9005" style="stop-color:#E54992"/>
			<stop  offset="1" style="stop-color:#EB388D"/>
		</linearGradient>
		<path id="XMLID_63_" class="st3" d="M387.6,29.5c3.7-5.4,7.4-8.1,11.1-8.1s6.7,1.3,9.2,3.9c2.5,2.6,3.7,5.7,3.7,9.3
			c0,3.6-0.9,7.3-2.6,11.1c-1.7,3.7-4.2,6.9-7.3,9.3c-3.1,2.5-6.5,3.7-10,3.7c-2.6,0-4.9-1.2-6.8-3.5S382,50,382,46.6
			C382,40.6,383.9,34.9,387.6,29.5z M399.3,44.4c1.9-3.5,2.9-6.8,2.9-9.9c0-3.1-0.4-5.2-1.3-6.3c-2.1,1.2-4.1,3.7-6.2,7.6
			c-2,3.8-3.1,7.2-3.1,10.1c0,2.9,0.3,4.7,0.9,5.5C395.1,50.2,397.4,47.9,399.3,44.4z"/>
		<linearGradient id="XMLID_12_" gradientUnits="userSpaceOnUse" x1="393.9785" y1="78.2046" x2="393.9785" y2="1.3804">
			<stop  offset="0" style="stop-color:#74CFEB"/>
			<stop  offset="0.1362" style="stop-color:#93BCDB"/>
			<stop  offset="0.4521" style="stop-color:#C091B9"/>
			<stop  offset="0.7112" style="stop-color:#D86BA1"/>
			<stop  offset="0.9005" style="stop-color:#E54992"/>
			<stop  offset="1" style="stop-color:#EB388D"/>
		</linearGradient>
		<path id="XMLID_60_" class="st4" d="M443.7,37.1c0.7,0.8,1.1,1.8,1.1,3c0,1.2-0.5,2.6-1.4,4.2c-1.2,2.9-2.3,6.5-3.2,10.7
			c-0.9,4.3-1.8,7.7-2.7,10.3c-0.9,2.6-1.8,4.8-2.9,6.6s-2.4,3.3-4.2,4.5c-1.8,1.2-3.8,1.8-6.1,1.8c-3.2,0-6.1-1.1-8.6-3.2
			c-2.5-2.1-3.8-3.9-3.8-5.4s0.4-2.9,1.2-4.1c0.8-1.2,1.6-1.8,2.3-1.8c0.7,0,1.4,0.4,2,1.2c0.6,0.8,1.2,1.6,1.8,2.5
			c0.6,0.9,1.3,1.7,2.2,2.5c0.9,0.8,1.9,1.2,3,1.2c1.1,0,2.1-0.7,3-2.2c0.9-1.4,1.6-3,2.1-4.7c1.2-3.9,1.9-6.7,2.2-8.4
			c-3.3,2-5.9,3-8,3s-4-1.1-5.9-3.3c-1.9-2.2-2.9-4.3-2.9-6.3c0-2,0.5-4.5,1.6-7.5c1.1-3,2.5-6,4.2-9c1.7-3,3.9-5.6,6.5-7.7
			c2.6-2.2,5.2-3.2,7.9-3.2c1.8,0,3.3,0.4,4.5,1.3c1.2,0.9,2.2,2.1,2.7,3.6c1,2.6,1.5,5.5,1.5,8.8C443.8,35.7,443.8,36.3,443.7,37.1
			z M423.7,48.7c0,0.6,0.3,0.9,0.8,0.9c1.4,0,3.6-1.3,6.8-3.8c3.1-2.5,5.2-5.1,6.3-7.6v-1.4c0-3.1-0.3-5-0.9-5.7
			c-0.3-0.3-0.7-0.5-1.2-0.5c-2.3,0-4.8,2.4-7.6,7.3C425.1,42.8,423.7,46.4,423.7,48.7z"/>
	</g>
</g>
<g id="left-paw">
	<g id="XMLID_4_">
		
			<linearGradient id="MainPaw1_3_" gradientUnits="userSpaceOnUse" x1="190.9554" y1="1071.7563" x2="190.9554" y2="1037.5262" gradientTransform="matrix(1 0 0 1 0 -1010.2)">
			<stop  offset="0" style="stop-color:#FDD6C1"/>
			<stop  offset="1" style="stop-color:#F7A4A6"/>
		</linearGradient>
		<path id="MainPaw1_1_" class="st5" d="M210.4,45.4c3,11.3-8.4,4.8-19.1,7.8c-10.7,3-16.7,14.9-19.7,3.6c-1.2-6-0.6-11.9,1.8-17.3
			c2.4-5.4,6.6-9.6,11.3-11.3c5.4-1.8,11.3,0.6,16.1,4.2C205.6,35.9,209.2,40,210.4,45.4z"/>
		
			<linearGradient id="Paw4_3_" gradientUnits="userSpaceOnUse" x1="164.4428" y1="1052.2357" x2="164.4428" y2="1034.1249" gradientTransform="matrix(1 0 0 1 0 -1010.2)">
			<stop  offset="0" style="stop-color:#FDD6C1"/>
			<stop  offset="1" style="stop-color:#F7A4A6"/>
		</linearGradient>
		<path id="Paw4_2_" class="st6" d="M169.2,41.2c-3,1.8-7.8,0-10.1-4.8c-3-4.8-2.4-9.6,0.6-11.9c3-1.8,7.8,0,10.1,4.8
			C172.8,34.1,172.2,39.4,169.2,41.2z"/>
		
			<linearGradient id="Paw3_3_" gradientUnits="userSpaceOnUse" x1="176.2639" y1="1038.4081" x2="176.2639" y2="1020.2966" gradientTransform="matrix(1 0 0 1 0 -1010.2)">
			<stop  offset="0" style="stop-color:#FDD6C1"/>
			<stop  offset="1" style="stop-color:#F7A4A6"/>
		</linearGradient>
		<path id="Paw3_2_" class="st7" d="M181.2,27.5c-3,1.8-7.8,0-10.1-4.8c-3-4.8-2.4-9.6,0.6-11.9c3-1.8,7.8,0,10.1,4.8
			C184.1,20.3,184.1,25.1,181.2,27.5z"/>
		
			<linearGradient id="Paw2_3_" gradientUnits="userSpaceOnUse" x1="192.8026" y1="1034.8962" x2="192.8026" y2="1015.3447" gradientTransform="matrix(1 0 0 1 0 -1010.2)">
			<stop  offset="0" style="stop-color:#FDD6C1"/>
			<stop  offset="1" style="stop-color:#F7A4A6"/>
		</linearGradient>
		<path id="Paw2_2_" class="st8" d="M193.7,25.1c-3.6,0.6-6.6-3.6-7.2-9.6c-0.6-5.4,1.8-9.6,5.4-10.1s6.6,3.6,7.2,9.6
			C199.7,19.7,197.3,24.5,193.7,25.1z"/>
		
			<linearGradient id="Paw1_3_" gradientUnits="userSpaceOnUse" x1="209.5201" y1="1043.0173" x2="209.5201" y2="1023.5314" gradientTransform="matrix(1 0 0 1 0 -1010.2)">
			<stop  offset="0" style="stop-color:#FDD6C1"/>
			<stop  offset="1" style="stop-color:#F7A4A6"/>
		</linearGradient>
		<path id="Paw1_2_" class="st9" d="M208,32.3c-3.6-0.6-6-5.4-4.8-10.7c1.2-5.4,4.2-9.6,7.8-9s6,5.4,4.8,10.7
			C214.6,29.3,211,32.9,208,32.3z"/>
	</g>
</g>
<g id="XMLID_2_">
	<text id="XMLID_58_" transform="matrix(1 0 0 1 7.629395e-006 59.5562)" class="st0 st1">walk</text>
	<text id="XMLID_57_" transform="matrix(1 0 0 1 7.629395e-006 59.5562)" class="st0 st1">walk</text>
	<g id="XMLID_47_">
		<linearGradient id="XMLID_13_" gradientUnits="userSpaceOnUse" x1="73.727" y1="58.692" x2="73.727" y2="1.3804">
			<stop  offset="0" style="stop-color:#74CFEB"/>
			<stop  offset="0.1362" style="stop-color:#93BCDB"/>
			<stop  offset="0.4521" style="stop-color:#C091B9"/>
			<stop  offset="0.7112" style="stop-color:#D86BA1"/>
			<stop  offset="0.9005" style="stop-color:#E54992"/>
			<stop  offset="1" style="stop-color:#EB388D"/>
		</linearGradient>
		<path id="XMLID_55_" class="st10" d="M45,21.5c1.3,0,2.8,0.5,4.4,1.4c1.6,0.9,2.4,1.9,2.4,2.9c0,1-0.8,4.4-2.4,10.2
			c-1.6,5.8-4.2,11-7.7,15.7c-3.5,4.6-6.1,6.9-7.7,6.9c-0.7,0-1.7-0.5-3-1.4c-1.3-1-2.3-2-2.9-3.2c-1-2-1.5-7.7-1.5-17.3
			c-2.1,6.7-4.4,12.1-7.1,16c-2.6,4-4.8,5.9-6.4,5.9c-0.7,0-1.8-0.5-3.1-1.4c-1.4-1-2.2-1.9-2.6-2.9c-1.1-2.6-2.1-7.5-3-14.8
			c-1-7.3-1.4-12.3-1.4-15c0-2,0.7-3,2-3c1.8,0,3.7,1.1,5.6,3.3c1.9,2.2,2.9,3.9,2.9,5.2c0,7,0.1,12.5,0.2,16.6
			c1.9-2.9,3.7-6.6,5.2-10.9c1.6-4.4,2.8-7.8,3.8-10.4c1-2.5,2-3.8,3-3.8c2.1,0,4.2,1,6.3,3.1c2.1,2,3.1,4.1,3.1,6.2
			c0,1-0.2,3-0.5,6c-0.3,3-0.5,5.3-0.5,6.8c0,1.5,0.1,2.8,0.3,3.8c1.6-1.6,3-3.9,4.1-7c1.2-3.1,2-6,2.6-8.7
			C42.4,24.9,43.7,21.5,45,21.5z"/>
		<linearGradient id="XMLID_14_" gradientUnits="userSpaceOnUse" x1="73.727" y1="58.692" x2="73.727" y2="1.3804">
			<stop  offset="0" style="stop-color:#74CFEB"/>
			<stop  offset="0.1362" style="stop-color:#93BCDB"/>
			<stop  offset="0.4521" style="stop-color:#C091B9"/>
			<stop  offset="0.7112" style="stop-color:#D86BA1"/>
			<stop  offset="0.9005" style="stop-color:#E54992"/>
			<stop  offset="1" style="stop-color:#EB388D"/>
		</linearGradient>
		<path id="XMLID_52_" class="st11" d="M83.5,38.2c0.9,0.8,1.3,1.5,1.3,2.1c0,0.6-0.3,1.9-0.9,3.9c-0.6,2-1,3.5-1.2,4.6
			c-0.2,1.1-0.3,1.9-0.5,2.6c-0.1,0.6-0.2,1.1-0.3,1.5c0,0.4-0.1,0.8-0.3,1.3c-0.1,0.5-0.2,0.9-0.3,1.3c-0.1,0.3-0.2,0.7-0.3,1.1
			c-0.1,0.4-0.3,0.7-0.4,0.9s-0.3,0.4-0.5,0.7c-0.3,0.4-0.8,0.6-1.4,0.6c-0.7,0-1.5-0.7-2.5-2c-1-1.3-1.7-3-2.2-4.9
			c-4.5,4.6-8.3,6.9-11.4,6.9c-2.1,0-4.3-1.1-6.7-3.4c-2.4-2.3-3.6-4.6-3.6-6.8c0-2.3,1-5.5,3.1-9.8c2.1-4.2,4.9-8.1,8.5-11.7
			c3.6-3.6,7.1-5.4,10.6-5.4c2,0,4.3,1.2,7,3.5c2.6,2.4,4,4.5,4,6.4S85,35.7,83.5,38.2z M62.6,49.6c1.9,0,4.5-1.3,7.7-3.9
			c3.2-2.6,5.2-5.9,5.9-9.9c0-0.6,0.5-0.9,1.2-1c-0.1-2.7-0.6-4.1-1.4-4.1c-1.9,0-4.1,1.2-6.4,3.7c-2.4,2.5-4.3,5.2-5.8,8
			c-1.5,2.8-2.3,4.9-2.3,6.3c0,0.4,0.1,0.6,0.2,0.8C61.8,49.6,62.1,49.6,62.6,49.6z"/>
		<linearGradient id="XMLID_15_" gradientUnits="userSpaceOnUse" x1="73.727" y1="58.692" x2="73.727" y2="1.3804">
			<stop  offset="0" style="stop-color:#74CFEB"/>
			<stop  offset="0.1362" style="stop-color:#93BCDB"/>
			<stop  offset="0.4521" style="stop-color:#C091B9"/>
			<stop  offset="0.7112" style="stop-color:#D86BA1"/>
			<stop  offset="0.9005" style="stop-color:#E54992"/>
			<stop  offset="1" style="stop-color:#EB388D"/>
		</linearGradient>
		<path id="XMLID_50_" class="st12" d="M104.3,4.5c1.8,2.1,2.7,4.1,2.7,6c0,1.9-0.3,5.3-0.9,10.3c-0.6,4.9-1.2,8.8-1.8,11.8
			c-4,17.4-6.8,26.1-8.4,26.1c-1.1,0-2.4-0.9-3.9-2.6c-1.6-1.7-2.3-3.1-2.3-4.2c0-0.1,0.6-2.6,1.9-7.5c1.3-4.9,2.6-11.2,3.9-18.9
			c1.3-7.7,2-15.1,2-22.1c0-1.4,0.7-2.1,2.2-2.1C100.9,1.4,102.4,2.4,104.3,4.5z"/>
		<linearGradient id="XMLID_16_" gradientUnits="userSpaceOnUse" x1="73.727" y1="58.692" x2="73.727" y2="1.3804">
			<stop  offset="0" style="stop-color:#74CFEB"/>
			<stop  offset="0.1362" style="stop-color:#93BCDB"/>
			<stop  offset="0.4521" style="stop-color:#C091B9"/>
			<stop  offset="0.7112" style="stop-color:#D86BA1"/>
			<stop  offset="0.9005" style="stop-color:#E54992"/>
			<stop  offset="1" style="stop-color:#EB388D"/>
		</linearGradient>
		<path id="XMLID_48_" class="st13" d="M115.5,58.7c-1.1,0-2.5-0.9-4.1-2.7c-1.7-1.8-2.5-3.2-2.5-4.2c0-0.3,0.8-3.1,2.4-8.6
			c1.6-5.4,3.2-12,4.8-19.6c1.6-7.6,2.4-14.3,2.4-20c0-1.5,0.7-2.2,2-2.2c1.2,0,2.7,1,4.6,3.1c1.9,2.1,2.8,4,2.8,5.9
			c0,2.6-0.9,7.6-2.8,15c-1.9,7.3-3.8,13.1-5.7,17.4c0.6-0.8,1.5-1.9,2.6-3.3s2-2.5,2.6-3.3c0.7-0.9,1.5-1.9,2.5-3.2
			c1-1.2,1.8-2.3,2.5-3.1c0.7-0.8,1.4-1.7,2.2-2.7c0.8-1,1.5-1.8,2.1-2.4c0.6-0.6,1.2-1.2,1.8-1.7c1.2-1.1,2-1.6,2.7-1.6
			c1.2,0,2.5,0.8,4,2.4c1.4,1.6,2.2,3,2.2,4.2c0,0.5-1,1.6-3.1,3.3c-2,1.7-4.1,3.6-6.1,5.8c-2,2.1-3.1,4-3.1,5.7
			c0,1.7,0.5,3.3,1.5,4.8c1,1.6,2.1,2.7,3.2,3.6c1.2,0.8,2.2,1.6,3.2,2.5c1,0.8,1.5,1.5,1.5,2.1c0,1.9-1.3,2.8-3.8,2.8
			c-3,0-7-2.5-12-7.6l-1.7-1.7C119.8,55.6,116.9,58.7,115.5,58.7z"/>
	</g>
</g>
<g id="XMLID_6_">
	<text id="XMLID_32_" transform="matrix(1 0 0 1 225.5 59.5562)" class="st0 st1">a</text>
	<text id="XMLID_31_" transform="matrix(1 0 0 1 225.5 59.5562)" class="st0 st1">a</text>
	<g id="XMLID_27_">
		<linearGradient id="XMLID_17_" gradientUnits="userSpaceOnUse" x1="243.5002" y1="58.6929" x2="243.5002" y2="21.5401">
			<stop  offset="0" style="stop-color:#74CFEB"/>
			<stop  offset="0.1362" style="stop-color:#93BCDB"/>
			<stop  offset="0.4521" style="stop-color:#C091B9"/>
			<stop  offset="0.7112" style="stop-color:#D86BA1"/>
			<stop  offset="0.9005" style="stop-color:#E54992"/>
			<stop  offset="1" style="stop-color:#EB388D"/>
		</linearGradient>
		<path id="XMLID_28_" class="st14" d="M257.9,38.2c0.9,0.8,1.3,1.5,1.3,2.1c0,0.6-0.3,1.9-0.9,3.9c-0.6,2-1,3.5-1.2,4.6
			c-0.2,1.1-0.3,1.9-0.5,2.6c-0.1,0.6-0.2,1.1-0.3,1.5c0,0.4-0.1,0.8-0.3,1.3c-0.1,0.5-0.2,0.9-0.3,1.3c-0.1,0.3-0.2,0.7-0.3,1.1
			c-0.1,0.4-0.3,0.7-0.4,0.9c-0.1,0.2-0.3,0.4-0.5,0.7c-0.3,0.4-0.8,0.6-1.4,0.6c-0.7,0-1.5-0.7-2.5-2c-1-1.3-1.7-3-2.2-4.9
			c-4.5,4.6-8.3,6.9-11.4,6.9c-2.1,0-4.3-1.1-6.7-3.4c-2.4-2.3-3.6-4.6-3.6-6.8c0-2.3,1-5.5,3.1-9.8c2.1-4.2,4.9-8.1,8.5-11.7
			c3.6-3.6,7.1-5.4,10.6-5.4c2,0,4.3,1.2,7,3.5c2.6,2.4,4,4.5,4,6.4S259.3,35.7,257.9,38.2z M236.9,49.6c1.9,0,4.5-1.3,7.7-3.9
			c3.2-2.6,5.2-5.9,5.9-9.9c0-0.6,0.5-0.9,1.2-1c-0.1-2.7-0.6-4.1-1.4-4.1c-1.9,0-4.1,1.2-6.4,3.7c-2.4,2.5-4.3,5.2-5.8,8
			c-1.5,2.8-2.3,4.9-2.3,6.3c0,0.4,0.1,0.6,0.2,0.8C236.2,49.6,236.5,49.6,236.9,49.6z"/>
	</g>
</g>
<g id="left-paw_1_">
	<g id="XMLID_8_">
		
			<linearGradient id="MainPaw1_4_" gradientUnits="userSpaceOnUse" x1="246.6208" y1="1071.7563" x2="246.6208" y2="1037.5262" gradientTransform="matrix(-1 0 0 1 548.1797 -1010.2)">
			<stop  offset="0" style="stop-color:#FDD6C1"/>
			<stop  offset="1" style="stop-color:#F7A4A6"/>
		</linearGradient>
		<path id="MainPaw1_2_" class="st15" d="M291.7,32.3c4.8-3.6,10.7-6,16.1-4.2c4.8,1.8,9,6,11.3,11.3c2.4,5.4,3,11.3,1.8,17.3
			c-3,11.3-9-0.6-19.7-3.6c-10.7-3-22.1,3.6-19.1-7.8C283.3,40,286.9,35.9,291.7,32.3z"/>
		
			<linearGradient id="Paw4_4_" gradientUnits="userSpaceOnUse" x1="220.1082" y1="1052.2357" x2="220.1082" y2="1034.1249" gradientTransform="matrix(-1 0 0 1 548.1797 -1010.2)">
			<stop  offset="0" style="stop-color:#FDD6C1"/>
			<stop  offset="1" style="stop-color:#F7A4A6"/>
		</linearGradient>
		<path id="Paw4_1_" class="st16" d="M322.7,29.3c2.4-4.8,7.2-6.6,10.1-4.8c3,2.4,3.6,7.2,0.6,11.9c-2.4,4.8-7.2,6.6-10.1,4.8
			S319.7,34.1,322.7,29.3z"/>
		
			<linearGradient id="Paw3_4_" gradientUnits="userSpaceOnUse" x1="231.9293" y1="1038.4081" x2="231.9293" y2="1020.2966" gradientTransform="matrix(-1 0 0 1 548.1797 -1010.2)">
			<stop  offset="0" style="stop-color:#FDD6C1"/>
			<stop  offset="1" style="stop-color:#F7A4A6"/>
		</linearGradient>
		<path id="Paw3_1_" class="st17" d="M310.8,15.6c2.4-4.8,7.2-6.6,10.1-4.8c3,2.4,3.6,7.2,0.6,11.9c-2.4,4.8-7.2,6.6-10.1,4.8
			C308.4,25.1,308.4,20.3,310.8,15.6z"/>
		
			<linearGradient id="Paw2_4_" gradientUnits="userSpaceOnUse" x1="248.468" y1="1034.8962" x2="248.468" y2="1015.3447" gradientTransform="matrix(-1 0 0 1 548.1797 -1010.2)">
			<stop  offset="0" style="stop-color:#FDD6C1"/>
			<stop  offset="1" style="stop-color:#F7A4A6"/>
		</linearGradient>
		<path id="Paw2_1_" class="st18" d="M293.4,15c0.6-6,3.6-10.1,7.2-9.6s6,4.8,5.4,10.1c-0.6,6-3.6,10.1-7.2,9.6
			C295.2,24.5,292.8,19.7,293.4,15z"/>
		
			<linearGradient id="Paw1_4_" gradientUnits="userSpaceOnUse" x1="265.1855" y1="1043.0173" x2="265.1855" y2="1023.5314" gradientTransform="matrix(-1 0 0 1 548.1797 -1010.2)">
			<stop  offset="0" style="stop-color:#FDD6C1"/>
			<stop  offset="1" style="stop-color:#F7A4A6"/>
		</linearGradient>
		<path id="Paw1_1_" class="st19" d="M276.7,23.3c-1.2-5.4,1.2-10.1,4.8-10.7s6.6,3.6,7.8,9c1.2,5.4-1.2,10.1-4.8,10.7
			C281.5,32.9,277.9,29.3,276.7,23.3z"/>
	</g>
</g>
<line id="XMLID_7_" class="st20" x1="63.5" y1="-4.3" x2="444.5" y2="-4.3"/>
</svg>
